<svg width="18" height="18" viewBox="0 0 18 18" fill="#F90F0F" xmlns="http://www.w3.org/2000/svg">
<path fill-rule="evenodd" clip-rule="evenodd" d="M9 0C4.02944 0 0 4.02944 0 9C0 13.9706 4.02944 18 9 18C13.9706 18 18 13.9706 18 9C18 4.02944 13.9706 0 9 0ZM12.339 6.61056C12.7334 6.99934 12.9669 7.51707 12.9964 8.06839C13.034 8.77234 12.7723 9.26804 12.54 9.62129C12.2639 10.0413 11.5466 10.8515 10.7956 11.5918C10.407 11.9749 10.049 12.2993 9.76041 12.5298C9.28615 12.9087 9.10134 12.9525 9.00362 12.9525C8.89939 12.9525 8.71947 12.9043 8.24971 12.5288C7.96043 12.2975 7.60122 11.9726 7.21094 11.5893C6.45323 10.845 5.73331 10.0358 5.46026 9.62137C5.11518 9.09774 4.9744 8.61881 5.00378 8.06839C5.0333 7.51704 5.26678 6.99934 5.66121 6.61059C6.06064 6.21687 6.58184 6.00003 7.12877 6.00003C7.99759 6.00003 8.59995 6.68607 8.88939 7.01576L8.89029 7.01678C8.92987 7.06183 8.97276 7.11064 9.00446 7.14345C9.04437 7.10529 9.10171 7.04274 9.15064 6.98934C9.46756 6.64357 10.0575 6 10.8714 6C11.4184 6 11.9396 6.21684 12.339 6.61056Z" fill="#E94F54"/>
</svg>
